<?xml version="1.0" standalone="no"?>
<!DOCTYPE svg PUBLIC "-//W3C//DTD SVG 1.1//EN"
"http://www.w3.org/Graphics/SVG/1.1/DTD/svg11.dtd">

<svg width="606" height="669" view_box="0 0 606 669"
xmlns="http://www.w3.org/2000/svg"
xmlns:link="http://www.w3.org/1999/xlink">\n\n<desc>Généré par Mocodo 2.3.7 le Fri, 24 Sep 2021 06:01:11</desc>

<rect id="frame" x="0" y="0" width="606" height="669" fill="#f7f7f7" stroke="none" stroke-width="0"/>

<!-- Association belongs to -->
<line x1="65" y1="153" x2="190" y2="43" stroke="#d6604d" stroke-width="2"/>
<text x="92.1612772939" y="103" fill="#2166ac" font-family="Verdana" font-size="12">0,N</text>
<line x1="310" y1="43" x2="190" y2="43" stroke="#d6604d" stroke-width="2"/>
<text x="249" y="60.0" fill="#2166ac" font-family="Verdana" font-size="12">1,1</text>
<g id="association-belongs to">
	<path d="M 215 18 a 14 14 90 0 1 14 14 V 43 h -78 V 32 a 14 14 90 0 1 14 -14" fill="#f4a582" stroke="#f4a582" stroke-width="0"/>
	<path d="M 229 43.0 v 11 a 14 14 90 0 1 -14 14 H 165 a 14 14 90 0 1 -14 -14 V 43.0 H 78" fill="#fddbc7" stroke="#fddbc7" stroke-width="0"/>
	<rect x="151" y="18" width="78" height="50" fill="none" rx="14" stroke="#d6604d" stroke-width="2"/>
	<line x1="151" y1="43" x2="229" y2="43" stroke="#d6604d" stroke-width="1"/>
	<text x="158" y="35.7" fill="#000000" font-family="Verdana" font-size="12">belongs to</text>
</g>

<!-- Association organises -->
<line x1="310" y1="153" x2="190" y2="153" stroke="#d6604d" stroke-width="2"/>
<text x="242" y="145.0" fill="#2166ac" font-family="Verdana" font-size="12">0,N</text>
<line x1="65" y1="153" x2="190" y2="153" stroke="#d6604d" stroke-width="2"/>
<text x="126" y="170.0" fill="#2166ac" font-family="Verdana" font-size="12">1,1</text>
<g id="association-organises">
	<path d="M 213 128 a 14 14 90 0 1 14 14 V 153 h -74 V 142 a 14 14 90 0 1 14 -14" fill="#f4a582" stroke="#f4a582" stroke-width="0"/>
	<path d="M 227 153.0 v 11 a 14 14 90 0 1 -14 14 H 167 a 14 14 90 0 1 -14 -14 V 153.0 H 74" fill="#fddbc7" stroke="#fddbc7" stroke-width="0"/>
	<rect x="153" y="128" width="74" height="50" fill="none" rx="14" stroke="#d6604d" stroke-width="2"/>
	<line x1="153" y1="153" x2="227" y2="153" stroke="#d6604d" stroke-width="1"/>
	<text x="160" y="145.7" fill="#000000" font-family="Verdana" font-size="12">organises</text>
</g>

<!-- Association creates -->
<line x1="310" y1="153" x2="418" y2="43" stroke="#d6604d" stroke-width="2"/>
<text x="356" y="121.26147912" fill="#2166ac" font-family="Verdana" font-size="12">0,N</text>
<line x1="310" y1="43" x2="418" y2="43" stroke="#d6604d" stroke-width="2"/>
<text x="350" y="60.0" fill="#2166ac" font-family="Verdana" font-size="12">1,1</text>
<g id="association-creates">
	<path d="M 434 18 a 14 14 90 0 1 14 14 V 43 h -60 V 32 a 14 14 90 0 1 14 -14" fill="#f4a582" stroke="#f4a582" stroke-width="0"/>
	<path d="M 448 43.0 v 11 a 14 14 90 0 1 -14 14 H 402 a 14 14 90 0 1 -14 -14 V 43.0 H 60" fill="#fddbc7" stroke="#fddbc7" stroke-width="0"/>
	<rect x="388" y="18" width="60" height="50" fill="none" rx="14" stroke="#d6604d" stroke-width="2"/>
	<line x1="388" y1="43" x2="448" y2="43" stroke="#d6604d" stroke-width="1"/>
	<text x="395" y="35.7" fill="#000000" font-family="Verdana" font-size="12">creates</text>
</g>

<!-- Association handles -->
<line x1="310" y1="153" x2="418" y2="254" stroke="#d6604d" stroke-width="2"/>
<text x="356" y="190.078855271" fill="#2166ac" font-family="Verdana" font-size="12">1,N</text>
<line x1="418" y1="482" x2="418" y2="254" stroke="#d6604d" stroke-width="2"/>
<text x="423.0" y="296" fill="#2166ac" font-family="Verdana" font-size="12">1,1</text>
<g id="association-handles">
	<path d="M 435 229 a 14 14 90 0 1 14 14 V 254 h -62 V 243 a 14 14 90 0 1 14 -14" fill="#f4a582" stroke="#f4a582" stroke-width="0"/>
	<path d="M 449 254.0 v 11 a 14 14 90 0 1 -14 14 H 401 a 14 14 90 0 1 -14 -14 V 254.0 H 62" fill="#fddbc7" stroke="#fddbc7" stroke-width="0"/>
	<rect x="387" y="229" width="62" height="50" fill="none" rx="14" stroke="#d6604d" stroke-width="2"/>
	<line x1="387" y1="254" x2="449" y2="254" stroke="#d6604d" stroke-width="1"/>
	<text x="394" y="246.7" fill="#000000" font-family="Verdana" font-size="12">handles</text>
</g>

<!-- Association manages -->
<line x1="310" y1="153" x2="418" y2="153" stroke="#d6604d" stroke-width="2"/>
<text x="356" y="170.0" fill="#2166ac" font-family="Verdana" font-size="12">1,N</text>
<line x1="508" y1="153" x2="418" y2="153" stroke="#d6604d" stroke-width="2"/>
<text x="461" y="170.0" fill="#2166ac" font-family="Verdana" font-size="12">1,1</text>
<g id="association-manages">
	<path d="M 439 128 a 14 14 90 0 1 14 14 V 153 h -70 V 142 a 14 14 90 0 1 14 -14" fill="#f4a582" stroke="#f4a582" stroke-width="0"/>
	<path d="M 453 153.0 v 11 a 14 14 90 0 1 -14 14 H 397 a 14 14 90 0 1 -14 -14 V 153.0 H 70" fill="#fddbc7" stroke="#fddbc7" stroke-width="0"/>
	<rect x="383" y="128" width="70" height="50" fill="none" rx="14" stroke="#d6604d" stroke-width="2"/>
	<line x1="383" y1="153" x2="453" y2="153" stroke="#d6604d" stroke-width="1"/>
	<text x="390" y="145.7" fill="#000000" font-family="Verdana" font-size="12">manages</text>
</g>

<!-- Association CAMPAIGN_HAS_PLAYERS -->
<line x1="310" y1="153" x2="190" y2="254" stroke="#d6604d" stroke-width="2"/>
<text x="242" y="185.722772805" fill="#2166ac" font-family="Verdana" font-size="12">0,N</text>
<line x1="65" y1="153" x2="190" y2="254" stroke="#d6604d" stroke-width="2"/>
<text x="95.995199023" y="212" fill="#2166ac" font-family="Verdana" font-size="12">1,N</text>
<g id="association-CAMPAIGN_HAS_PLAYERS">
	<path d="M 264 229 a 14 14 90 0 1 14 14 V 254 h -176 V 243 a 14 14 90 0 1 14 -14" fill="#f4a582" stroke="#f4a582" stroke-width="0"/>
	<path d="M 278 254.0 v 11 a 14 14 90 0 1 -14 14 H 116 a 14 14 90 0 1 -14 -14 V 254.0 H 176" fill="#fddbc7" stroke="#fddbc7" stroke-width="0"/>
	<rect x="102" y="229" width="176" height="50" fill="none" rx="14" stroke="#d6604d" stroke-width="2"/>
	<line x1="102" y1="254" x2="278" y2="254" stroke="#d6604d" stroke-width="1"/>
	<text x="109" y="246.7" fill="#000000" font-family="Verdana" font-size="12">CAMPAIGN_HAS_PLAYERS</text>
</g>

<!-- Association has -->
<line x1="508" y1="43" x2="579" y2="153" stroke="#d6604d" stroke-width="2"/>
<text x="507.910119921" y="94" fill="#2166ac" font-family="Verdana" font-size="12">1,N</text>
<line x1="508" y1="153" x2="579" y2="153" stroke="#d6604d" stroke-width="2"/>
<text x="534" y="170.0" fill="#2166ac" font-family="Verdana" font-size="12">1,1</text>
<g id="association-has">
	<path d="M 583 128 a 14 14 90 0 1 14 14 V 153 h -36 V 142 a 14 14 90 0 1 14 -14" fill="#f4a582" stroke="#f4a582" stroke-width="0"/>
	<path d="M 597 153.0 v 11 a 14 14 90 0 1 -14 14 H 575 a 14 14 90 0 1 -14 -14 V 153.0 H 36" fill="#fddbc7" stroke="#fddbc7" stroke-width="0"/>
	<rect x="561" y="128" width="36" height="50" fill="none" rx="14" stroke="#d6604d" stroke-width="2"/>
	<line x1="561" y1="153" x2="597" y2="153" stroke="#d6604d" stroke-width="1"/>
	<text x="568" y="145.7" fill="#000000" font-family="Verdana" font-size="12">has</text>
</g>

<!-- Entity WIKI -->
<g id="entity-WIKI">
	<g id="frame-WIKI">
		<rect x="487" y="128" width="42" height="25" fill="#92c5de" stroke="#92c5de" stroke-width="0"/>
		<rect x="487" y="153.0" width="42" height="25" fill="#d1e5f0" stroke="#d1e5f0" stroke-width="0"/>
		<rect x="487" y="128" width="42" height="50" fill="none" stroke="#4393c3" stroke-width="2"/>
		<line x1="487" y1="153" x2="529" y2="153" stroke="#4393c3" stroke-width="1"/>
	</g>
	<text x="492" y="145.7" fill="#000000" font-family="Verdana" font-size="12">WIKI</text>
	<text x="492" y="170.8" fill="#000000" font-family="Verdana" font-size="12">title</text>
	<line x1="492" y1="173" x2="516" y2="173" stroke="#000000" stroke-width="1"/>
</g>

<!-- Entity CAMPAIGN -->
<g id="entity-CAMPAIGN">
	<g id="frame-CAMPAIGN">
		<rect x="9" y="111" width="112" height="25" fill="#92c5de" stroke="#92c5de" stroke-width="0"/>
		<rect x="9" y="136.0" width="112" height="59" fill="#d1e5f0" stroke="#d1e5f0" stroke-width="0"/>
		<rect x="9" y="111" width="112" height="84" fill="none" stroke="#4393c3" stroke-width="2"/>
		<line x1="9" y1="136" x2="121" y2="136" stroke="#4393c3" stroke-width="1"/>
	</g>
	<text x="31" y="128.7" fill="#000000" font-family="Verdana" font-size="12">CAMPAIGN</text>
	<text x="14" y="153.8" fill="#000000" font-family="Verdana" font-size="12">campaign_name</text>
	<line x1="14" y1="156" x2="115" y2="156" stroke="#000000" stroke-width="1"/>
	<text x="14" y="170.8" fill="#000000" font-family="Verdana" font-size="12">description</text>
	<text x="14" y="187.8" fill="#000000" font-family="Verdana" font-size="12">created_at</text>
</g>

<!-- Entity REGION -->
<g id="entity-REGION">
	<g id="frame-REGION">
		<rect x="369" y="304" width="98" height="25" fill="#92c5de" stroke="#92c5de" stroke-width="0"/>
		<rect x="369" y="329.0" width="98" height="331" fill="#d1e5f0" stroke="#d1e5f0" stroke-width="0"/>
		<rect x="369" y="304" width="98" height="356" fill="none" stroke="#4393c3" stroke-width="2"/>
		<line x1="369" y1="329" x2="467" y2="329" stroke="#4393c3" stroke-width="1"/>
	</g>
	<text x="393" y="321.7" fill="#000000" font-family="Verdana" font-size="12">REGION</text>
	<text x="374" y="346.7" fill="#000000" font-family="Verdana" font-size="12">region</text>
	<line x1="374" y1="349" x2="413" y2="349" stroke="#000000" stroke-width="1"/>
	<text x="374" y="363.7" fill="#000000" font-family="Verdana" font-size="12">history</text>
	<text x="374" y="380.7" fill="#000000" font-family="Verdana" font-size="12">geography</text>
	<text x="374" y="397.7" fill="#000000" font-family="Verdana" font-size="12">architecture</text>
	<text x="374" y="414.7" fill="#000000" font-family="Verdana" font-size="12">language</text>
	<text x="374" y="431.7" fill="#000000" font-family="Verdana" font-size="12">currency</text>
	<text x="374" y="448.7" fill="#000000" font-family="Verdana" font-size="12">leader</text>
	<text x="374" y="465.7" fill="#000000" font-family="Verdana" font-size="12">religion</text>
	<text x="374" y="482.8" fill="#000000" font-family="Verdana" font-size="12">caste</text>
	<text x="374" y="499.8" fill="#000000" font-family="Verdana" font-size="12">name</text>
	<text x="374" y="516.8" fill="#000000" font-family="Verdana" font-size="12">justice</text>
	<text x="374" y="533.8" fill="#000000" font-family="Verdana" font-size="12">mage</text>
	<text x="374" y="550.8" fill="#000000" font-family="Verdana" font-size="12">outfit</text>
	<text x="374" y="567.8" fill="#000000" font-family="Verdana" font-size="12">lifestyle</text>
	<text x="374" y="584.8" fill="#000000" font-family="Verdana" font-size="12">treatment</text>
	<text x="374" y="601.8" fill="#000000" font-family="Verdana" font-size="12">movement</text>
	<text x="374" y="618.8" fill="#000000" font-family="Verdana" font-size="12">nutrition</text>
	<text x="374" y="635.8" fill="#000000" font-family="Verdana" font-size="12">art</text>
	<text x="374" y="652.8" fill="#000000" font-family="Verdana" font-size="12">entertainment</text>
</g>

<!-- Entity NOTE -->
<g id="entity-NOTE">
	<g id="frame-NOTE">
		<rect x="275" y="9" width="70" height="25" fill="#92c5de" stroke="#92c5de" stroke-width="0"/>
		<rect x="275" y="34.0" width="70" height="43" fill="#d1e5f0" stroke="#d1e5f0" stroke-width="0"/>
		<rect x="275" y="9" width="70" height="68" fill="none" stroke="#4393c3" stroke-width="2"/>
		<line x1="275" y1="34" x2="345" y2="34" stroke="#4393c3" stroke-width="1"/>
	</g>
	<text x="293" y="26.7" fill="#000000" font-family="Verdana" font-size="12">NOTE</text>
	<text x="280" y="51.8" fill="#000000" font-family="Verdana" font-size="12">content</text>
	<text x="280" y="68.8" fill="#000000" font-family="Verdana" font-size="12">is_private</text>
</g>

<!-- Entity USER -->
<g id="entity-USER">
	<g id="frame-USER">
		<rect x="269" y="102" width="82" height="25" fill="#92c5de" stroke="#92c5de" stroke-width="0"/>
		<rect x="269" y="127.0" width="82" height="77" fill="#d1e5f0" stroke="#d1e5f0" stroke-width="0"/>
		<rect x="269" y="102" width="82" height="102" fill="none" stroke="#4393c3" stroke-width="2"/>
		<line x1="269" y1="127" x2="351" y2="127" stroke="#4393c3" stroke-width="1"/>
	</g>
	<text x="293" y="119.7" fill="#000000" font-family="Verdana" font-size="12">USER</text>
	<text x="274" y="144.7" fill="#000000" font-family="Verdana" font-size="12">pseudonym</text>
	<line x1="274" y1="147" x2="345" y2="147" stroke="#000000" stroke-width="1"/>
	<text x="274" y="161.8" fill="#000000" font-family="Verdana" font-size="12">email</text>
	<line x1="274" y1="164" x2="308" y2="164" stroke="#000000" stroke-width="1"/>
	<text x="274" y="178.8" fill="#000000" font-family="Verdana" font-size="12">password</text>
	<text x="274" y="195.8" fill="#000000" font-family="Verdana" font-size="12">is_admin</text>
</g>

<!-- Entity BLOCK -->
<g id="entity-BLOCK">
	<g id="frame-BLOCK">
		<rect x="480" y="9" width="56" height="25" fill="#92c5de" stroke="#92c5de" stroke-width="0"/>
		<rect x="480" y="34.0" width="56" height="43" fill="#d1e5f0" stroke="#d1e5f0" stroke-width="0"/>
		<rect x="480" y="9" width="56" height="68" fill="none" stroke="#4393c3" stroke-width="2"/>
		<line x1="480" y1="34" x2="536" y2="34" stroke="#4393c3" stroke-width="1"/>
	</g>
	<text x="487" y="26.7" fill="#000000" font-family="Verdana" font-size="12">BLOCK</text>
	<text x="485" y="51.8" fill="#000000" font-family="Verdana" font-size="12">title</text>
	<text x="485" y="68.8" fill="#000000" font-family="Verdana" font-size="12">content</text>
</g>
</svg>